HIERARCHY
ROOT Root
{
  OFFSET 0.0 0.0 0.0
  CHANNELS 6 Xposition Yposition Zposition Zrotation Yrotation Xrotation
  JOINT Hips
  {
    OFFSET 0.0 100.0 0.0
    CHANNELS 6 Xposition Yposition Zposition Zrotation Yrotation Xrotation
    JOINT Spine1
    {
      OFFSET -0.013727 5.003763 -0.053727
      CHANNELS 3 Zrotation Yrotation Xrotation
      JOINT Spine2
      {
        OFFSET -0.0 7.125301 -0.029825
        CHANNELS 3 Zrotation Yrotation Xrotation
        JOINT Chest
        {
          OFFSET -1e-06 7.550063 -0.815971
          CHANNELS 3 Zrotation Yrotation Xrotation
          JOINT Neck1
          {
            OFFSET -0.181677 26.311295 -0.553348
            CHANNELS 3 Zrotation Yrotation Xrotation
            JOINT Neck2
            {
              OFFSET -3e-06 7.709397 2.302585
              CHANNELS 3 Zrotation Yrotation Xrotation
              JOINT Head
              {
                OFFSET -5e-06 6.128916 1.953709
                CHANNELS 3 Zrotation Yrotation Xrotation
                JOINT HeadEnd
                {
                  OFFSET 0.003598 16.065403 -1.835379
                  CHANNELS 3 Zrotation Yrotation Xrotation
                }
                JOINT Jaw
                {
                  OFFSET 0.002637 0.475592 3.094941
                  CHANNELS 3 Zrotation Yrotation Xrotation
                }
                JOINT LeftEye
                {
                  OFFSET 3.206381 5.380205 7.586883
                  CHANNELS 3 Zrotation Yrotation Xrotation
                }
                JOINT RightEye
                {
                  OFFSET -3.22244 5.361869 7.558234
                  CHANNELS 3 Zrotation Yrotation Xrotation
                }
              }
            }
          }
          JOINT LeftShoulder
          {
            OFFSET 1.621652 23.237164 5.113413
            CHANNELS 3 Zrotation Yrotation Xrotation
            JOINT LeftArm
            {
              OFFSET 14.919846 2e-06 -5.502326
              CHANNELS 3 Zrotation Yrotation Xrotation
              JOINT LeftForeArm
              {
                OFFSET 28.739307 0.0 -0.002588
                CHANNELS 3 Zrotation Yrotation Xrotation
                JOINT LeftHand
                {
                  OFFSET 27.093981 -1e-06 0.002609
                  CHANNELS 3 Zrotation Yrotation Xrotation
                  JOINT LeftHandThumb1
                  {
                    OFFSET 2.276482 -1.392045 3.191413
                    CHANNELS 3 Zrotation Yrotation Xrotation
                    JOINT LeftHandThumb2
                    {
                      OFFSET 4.012836 -1.828127 1.641654
                      CHANNELS 3 Zrotation Yrotation Xrotation
                      JOINT LeftHandThumb3
                      {
                        OFFSET 2.798515 0.0 -3e-06
                        CHANNELS 3 Zrotation Yrotation Xrotation
                        JOINT LeftHandThumbEnd
                        {
                          OFFSET 3.180793 -4e-06 4e-06
                          CHANNELS 3 Zrotation Yrotation Xrotation
                        }
                      }
                    }
                  }
                  JOINT LeftHandIndex1
                  {
                    OFFSET 3.247555 -0.531998 2.296169
                    CHANNELS 3 Zrotation Yrotation Xrotation
                    JOINT LeftHandIndex2
                    {
                      OFFSET 6.364578 0.01206 0.1786
                      CHANNELS 3 Zrotation Yrotation Xrotation
                      JOINT LeftHandIndex3
                      {
                        OFFSET 3.662364 0.0 0.0
                        CHANNELS 3 Zrotation Yrotation Xrotation
                        JOINT LeftHandIndex4
                        {
                          OFFSET 2.329242 4e-06 4e-06
                          CHANNELS 3 Zrotation Yrotation Xrotation
                          JOINT LeftHandIndexEnd
                          {
                            OFFSET 2.759615 -0.180537 -0.113024
                            CHANNELS 3 Zrotation Yrotation Xrotation
                          }
                        }
                      }
                    }
                  }
                  JOINT LeftHandMiddle1
                  {
                    OFFSET 3.163495 0.240981 1.000332
                    CHANNELS 3 Zrotation Yrotation Xrotation
                    JOINT LeftHandMiddle2
                    {
                      OFFSET 6.19078 -0.259278 -1.002548
                      CHANNELS 3 Zrotation Yrotation Xrotation
                      JOINT LeftHandMiddle3
                      {
                        OFFSET 4.35652 -4e-06 -1e-06
                        CHANNELS 3 Zrotation Yrotation Xrotation
                        JOINT LeftHandMiddle4
                        {
                          OFFSET 2.996877 -8e-06 0.0
                          CHANNELS 3 Zrotation Yrotation Xrotation
                          JOINT LeftHandMiddleEnd
                          {
                            OFFSET 2.304287 -0.294569 -0.031741
                            CHANNELS 3 Zrotation Yrotation Xrotation
                          }
                        }
                      }
                    }
                  }
                  JOINT LeftHandRing1
                  {
                    OFFSET 2.882643 -0.053652 -0.322543
                    CHANNELS 3 Zrotation Yrotation Xrotation
                    JOINT LeftHandRing2
                    {
                      OFFSET 5.854541 -0.486202 -1.373841
                      CHANNELS 3 Zrotation Yrotation Xrotation
                      JOINT LeftHandRing3
                      {
                        OFFSET 4.350578 0.0 3e-06
                        CHANNELS 3 Zrotation Yrotation Xrotation
                        JOINT LeftHandRing4
                        {
                          OFFSET 2.651321 7e-06 2e-06
                          CHANNELS 3 Zrotation Yrotation Xrotation
                          JOINT LeftHandRingEnd
                          {
                            OFFSET 1.936105 0.077687 -7.1e-05
                            CHANNELS 3 Zrotation Yrotation Xrotation
                          }
                        }
                      }
                    }
                  }
                  JOINT LeftHandPinky1
                  {
                    OFFSET 2.8655 -0.310005 -1.600378
                    CHANNELS 3 Zrotation Yrotation Xrotation
                    JOINT LeftHandPinky2
                    {
                      OFFSET 5.087849 -1.331141 -1.77123
                      CHANNELS 3 Zrotation Yrotation Xrotation
                      JOINT LeftHandPinky3
                      {
                        OFFSET 3.070974 4e-06 0.0
                        CHANNELS 3 Zrotation Yrotation Xrotation
                        JOINT LeftHandPinky4
                        {
                          OFFSET 1.549672 0.0 1e-06
                          CHANNELS 3 Zrotation Yrotation Xrotation
                          JOINT LeftHandPinkyEnd
                          {
                            OFFSET 1.944893 -0.157802 0.057219
                            CHANNELS 3 Zrotation Yrotation Xrotation
                          }
                        }
                      }
                    }
                  }
                }
              }
            }
          }
          JOINT RightShoulder
          {
            OFFSET -1.380118 23.180309 5.214158
            CHANNELS 3 Zrotation Yrotation Xrotation
            JOINT RightArm
            {
              OFFSET -15.037196 1.2e-05 -5.545604
              CHANNELS 3 Zrotation Yrotation Xrotation
              JOINT RightForeArm
              {
                OFFSET -28.736639 2e-06 -0.002597
                CHANNELS 3 Zrotation Yrotation Xrotation
                JOINT RightHand
                {
                  OFFSET -27.133619 -0.0 0.002613
                  CHANNELS 3 Zrotation Yrotation Xrotation
                  JOINT RightHandThumb1
                  {
                    OFFSET -2.274032 -1.383988 3.163127
                    CHANNELS 3 Zrotation Yrotation Xrotation
                    JOINT RightHandThumb2
                    {
                      OFFSET -4.011429 -1.827466 1.640914
                      CHANNELS 3 Zrotation Yrotation Xrotation
                      JOINT RightHandThumb3
                      {
                        OFFSET -2.794935 -4e-06 -3e-06
                        CHANNELS 3 Zrotation Yrotation Xrotation
                        JOINT RightHandThumbEnd
                        {
                          OFFSET -3.183852 4e-06 1e-06
                          CHANNELS 3 Zrotation Yrotation Xrotation
                        }
                      }
                    }
                  }
                  JOINT RightHandIndex1
                  {
                    OFFSET -3.253266 -0.520057 2.282866
                    CHANNELS 3 Zrotation Yrotation Xrotation
                    JOINT RightHandIndex2
                    {
                      OFFSET -6.341917 0.012471 0.178266
                      CHANNELS 3 Zrotation Yrotation Xrotation
                      JOINT RightHandIndex3
                      {
                        OFFSET -3.654871 -8e-06 -0.0
                        CHANNELS 3 Zrotation Yrotation Xrotation
                        JOINT RightHandIndex4
                        {
                          OFFSET -2.327586 0.0 1e-06
                          CHANNELS 3 Zrotation Yrotation Xrotation
                          JOINT RightHandIndexEnd
                          {
                            OFFSET -2.76179 -0.180656 -0.113078
                            CHANNELS 3 Zrotation Yrotation Xrotation
                          }
                        }
                      }
                    }
                  }
                  JOINT RightHandMiddle1
                  {
                    OFFSET -3.168106 0.246593 1.00103
                    CHANNELS 3 Zrotation Yrotation Xrotation
                    JOINT RightHandMiddle2
                    {
                      OFFSET -6.180828 -0.258836 -1.000895
                      CHANNELS 3 Zrotation Yrotation Xrotation
                      JOINT RightHandMiddle3
                      {
                        OFFSET -4.348901 0.0 -0.0
                        CHANNELS 3 Zrotation Yrotation Xrotation
                        JOINT RightHandMiddle4
                        {
                          OFFSET -3.00024 -4e-06 -2e-06
                          CHANNELS 3 Zrotation Yrotation Xrotation
                          JOINT RightHandMiddleEnd
                          {
                            OFFSET -2.30252 -0.29437 -0.031706
                            CHANNELS 3 Zrotation Yrotation Xrotation
                          }
                        }
                      }
                    }
                  }
                  JOINT RightHandRing1
                  {
                    OFFSET -2.88569 -0.067952 -0.308858
                    CHANNELS 3 Zrotation Yrotation Xrotation
                    JOINT RightHandRing2
                    {
                      OFFSET -5.854198 -0.48613 -1.373731
                      CHANNELS 3 Zrotation Yrotation Xrotation
                      JOINT RightHandRing3
                      {
                        OFFSET -4.33881 -4e-06 -0.0
                        CHANNELS 3 Zrotation Yrotation Xrotation
                        JOINT RightHandRing4
                        {
                          OFFSET -2.654903 -4e-06 4e-06
                          CHANNELS 3 Zrotation Yrotation Xrotation
                          JOINT RightHandRingEnd
                          {
                            OFFSET -1.933568 0.077527 -5.2e-05
                            CHANNELS 3 Zrotation Yrotation Xrotation
                          }
                        }
                      }
                    }
                  }
                  JOINT RightHandPinky1
                  {
                    OFFSET -2.866425 -0.342796 -1.584145
                    CHANNELS 3 Zrotation Yrotation Xrotation
                    JOINT RightHandPinky2
                    {
                      OFFSET -5.091371 -1.332055 -1.772385
                      CHANNELS 3 Zrotation Yrotation Xrotation
                      JOINT RightHandPinky3
                      {
                        OFFSET -3.062664 -4e-06 1e-06
                        CHANNELS 3 Zrotation Yrotation Xrotation
                        JOINT RightHandPinky4
                        {
                          OFFSET -1.546529 4e-06 -2e-06
                          CHANNELS 3 Zrotation Yrotation Xrotation
                          JOINT RightHandPinkyEnd
                          {
                            OFFSET -1.945119 -0.157718 0.057211
                            CHANNELS 3 Zrotation Yrotation Xrotation
                          }
                        }
                      }
                    }
                  }
                }
              }
            }
          }
        }
      }
    }
    JOINT LeftLeg
    {
      OFFSET 10.043214 -8.434526 2.595655
      CHANNELS 3 Zrotation Yrotation Xrotation
      JOINT LeftShin
      {
        OFFSET -1e-06 -43.221752 -0.802913
        CHANNELS 3 Zrotation Yrotation Xrotation
        JOINT LeftFoot
        {
          OFFSET 1e-06 -42.155094 -3.481523
          CHANNELS 3 Zrotation Yrotation Xrotation
          JOINT LeftToeBase
          {
            OFFSET 0.0 -5.059472 13.231529
            CHANNELS 3 Zrotation Yrotation Xrotation
            JOINT LeftToeEnd
            {
              OFFSET -0.009607 -1.647619 6.513017
              CHANNELS 3 Zrotation Yrotation Xrotation
            }
          }
        }
      }
    }
    JOINT RightLeg
    {
      OFFSET -10.047278 -8.29526 2.620317
      CHANNELS 3 Zrotation Yrotation Xrotation
      JOINT RightShin
      {
        OFFSET 1e-06 -43.362206 -0.805556
        CHANNELS 3 Zrotation Yrotation Xrotation
        JOINT RightFoot
        {
          OFFSET 2e-06 -42.117393 -3.478398
          CHANNELS 3 Zrotation Yrotation Xrotation
          JOINT RightToeBase
          {
            OFFSET -0.0 -5.079609 13.284196
            CHANNELS 3 Zrotation Yrotation Xrotation
            JOINT RightToeEnd
            {
              OFFSET 0.009532 -1.634378 6.460591
              CHANNELS 3 Zrotation Yrotation Xrotation
            }
          }
        }
      }
    }
  }
}
MOTION
Frames: 4
Frame Time: 0.03333333333333333
0.0 0.0 0.0 0.0 -0.0 0.0 -3.312494 99.282822 3.005158 2.0763 0.218591 -2.660707 -0.495011 -0.40425 -5.221345 -0.604933 -1.060489 -6.898801 -2.385378 -3.075326 17.937731 -0.368317 2.798638 -0.454987 -0.77992 0.236609 -3.565278 0.165809 -0.670344 -2.115277 7.7e-05 -2.3e-05 6e-06 0.028809 0.029752 0.022463 0.780139 -3.674596 -10.538321 -0.725374 3.742155 -10.485503 -27.526161 -12.790215 22.098825 -37.802406 -12.431153 25.665386 0.930276 -31.506001 -0.403157 -12.751916 -0.169956 2.181939 -5.88211 9.86129 0.70259 -10.936877 -0.360574 7.156208 0.0 8.77483 -0.0 -16.568314 18.164108 6.165585 -1.844034 2.498505 -2.50728 -10.163605 4.678947 4.621109 -20.976038 -3e-06 -1e-06 -21.226301 2.451698 -3.594005 1e-06 -5e-06 -0.0 -1.362682 2.2408 -0.746324 -21.334925 0.58491 3.008322 -13.821221 -2e-06 1e-06 -23.887184 -0.24908 -0.839487 -60.428242 2.57484 -0.802427 -0.294025 1.679688 0.833257 -14.218216 0.093215 1.300578 -34.21207 -0.287565 0.967167 -20.033228 0.964535 1.212842 0.0 1e-06 -1e-06 -3.44039 0.788234 0.501656 -15.928196 -3.16731 2.999707 -6.338829 -1e-06 1e-06 -18.123459 3.648185 -4.905676 -3e-06 0.0 -2e-06 22.822016 15.377954 22.462927 46.116673 6.699762 19.246149 -0.230711 39.114231 0.086267 1.985601 -5.638388 -8.35716 2.243543 -5.255038 -3.180158 14.282896 -0.826597 6.952506 -1e-06 -12.690609 -1e-06 16.369612 -17.686403 2.343362 1.665667 -1.955922 -2.878299 4.727802 -4.170589 4.993926 11.020532 2e-06 0.0 12.109059 -3.735719 -2.866786 0.0 -0.0 -1e-06 1.291986 -1.928551 -1.49809 14.800136 0.567468 3.86561 14.242578 -1.341737 -6.660661 19.631973 0.143925 -0.648248 49.719398 -0.499857 -6.571265 0.353029 -1.51115 -0.031941 20.222801 3.684309 2.316632 18.787283 3e-06 -3e-06 10.751634 -0.479871 1.397905 -1e-06 0.0 0.0 3.273809 0.305947 -0.58011 21.486824 11.830377 2.266135 8.16293 2e-06 -1e-06 18.399088 -3.798987 -4.940578 5e-06 0.0 1e-06 4.703794 12.210175 1.331442 0.078452 -0.108465 8.615366 -7.006308 -4.984884 -5.912129 1.641142 -1.792948 -2.177384 -0.0 -0.0 2e-06 -11.383554 -13.857783 3.407319 -0.077272 -0.135545 9.586878 11.019698 -6.565906 -8.249666 -1.423284 1.030313 -1.328547 -0.0 0.0 -1e-06 
0.0 0.0 0.0 0.0 -0.0 0.0 -3.221322 99.319107 2.880889 2.153276 0.36108 -2.536945 -0.534184 -0.413289 -4.958183 -0.594003 -1.046862 -6.810256 -2.519534 -3.175024 17.823635 -0.388543 2.74384 -0.562288 -0.803607 0.038883 -3.547147 -0.055959 -0.963051 -2.543597 7.7e-05 -2.2e-05 6e-06 0.029475 0.076552 0.0153 0.778332 -3.627548 -10.519218 -0.722855 3.788896 -10.46866 -27.071413 -12.76475 22.268999 -38.351116 -12.351108 24.636482 1.013359 -32.263844 -0.398338 -13.153299 0.721205 1.577078 -5.882113 9.861297 0.70259 -10.936887 -0.360577 7.156213 2e-06 8.774836 -2e-06 -16.520468 18.11072 6.192661 -1.844035 2.498507 -2.50728 -10.163614 4.678948 4.621112 -20.976055 -7e-06 1e-06 -21.226316 2.451695 -3.594005 2e-06 -5e-06 -0.0 -1.362684 2.240801 -0.746324 -21.334946 0.584906 3.008322 -13.821235 -6e-06 2e-06 -23.887205 -0.249086 -0.839484 -60.311241 2.564156 -0.692354 -0.294024 1.679688 0.833257 -14.21823 0.093212 1.300581 -34.212101 -0.287572 0.967172 -20.033243 0.964534 1.212846 1e-06 1e-06 -1e-06 -3.440392 0.788233 0.501656 -15.928208 -3.167316 2.999709 -6.338834 -3e-06 -0.0 -18.12347 3.648183 -4.905676 -3e-06 1e-06 -2e-06 21.454557 15.362648 22.636839 46.918934 5.504115 19.086983 -0.055972 42.384422 0.19894 2.195385 -6.562428 -8.199735 2.243544 -5.255043 -3.180163 14.282908 -0.826596 6.952509 -3e-06 -12.69062 2e-06 16.354156 -17.654631 2.282724 1.665668 -1.955923 -2.878303 4.727805 -4.170592 4.993931 11.02054 3e-06 -0.0 12.109064 -3.735719 -2.866784 0.0 0.0 -1e-06 1.291986 -1.928551 -1.498091 14.800148 0.567469 3.865612 14.242589 -1.341735 -6.660665 19.63199 0.143925 -0.648245 49.77758 -0.511268 -6.602036 0.353029 -1.511152 -0.031939 20.222818 3.684315 2.316633 18.787298 7e-06 -1e-06 10.751641 -0.479869 1.397908 -1e-06 1e-06 0.0 3.273811 0.305948 -0.580109 21.486843 11.830391 2.266135 8.162938 3e-06 -2e-06 18.399105 -3.798988 -4.94058 4e-06 0.0 0.0 4.464362 11.918657 1.194213 0.06721 -0.138578 8.393085 -6.943775 -4.808848 -5.733296 1.644709 -1.815003 -2.391342 -0.0 -0.0 2e-06 -11.472042 -13.883986 2.884933 -0.085866 -0.12044 10.284541 11.107059 -6.72887 -8.20853 -1.423636 1.018753 -1.443205 -0.0 0.0 -1e-06 
0.0 0.0 0.0 0.0 -0.0 0.0 -3.083362 99.322639 2.67008 2.245034 0.536587 -2.367943 -0.551497 -0.440698 -4.606028 -0.56696 -1.060085 -6.716345 -2.618371 -3.220499 17.72427 -0.430491 2.702083 -0.846301 -0.870127 -0.273085 -3.55441 -0.43607 -1.302178 -2.99445 7.7e-05 -2.3e-05 6e-06 0.031096 0.090118 0.008723 0.778092 -3.612776 -10.516431 -0.72007 3.800437 -10.468414 -26.394613 -12.59278 22.477448 -39.258083 -12.196435 22.711452 1.09041 -33.934292 -0.399055 -13.471223 2.146235 0.331039 -5.88211 9.861295 0.70259 -10.936881 -0.360577 7.156211 1e-06 8.774833 -4e-06 -16.557676 18.090481 6.157247 -1.844034 2.498507 -2.50728 -10.16361 4.678947 4.62111 -20.976042 -3e-06 4e-06 -21.226309 2.451697 -3.594004 0.0 -5e-06 0.0 -1.362683 2.2408 -0.746324 -21.334934 0.584908 3.008326 -13.821225 -4e-06 3e-06 -23.887192 -0.24908 -0.839482 -60.200161 2.608988 -0.745996 -0.294025 1.679688 0.833255 -14.218222 0.093214 1.300582 -34.212082 -0.287566 0.967173 -20.033232 0.964537 1.212847 0.0 1e-06 -0.0 -3.440392 0.788234 0.501656 -15.928203 -3.167314 2.999709 -6.338832 -1e-06 2e-06 -18.123466 3.648185 -4.905676 -2e-06 -0.0 -2e-06 19.339045 15.435681 22.668827 48.02615 3.390795 19.394773 -0.042859 47.657135 0.20441 2.853616 -8.20671 -8.36011 2.243545 -5.255042 -3.18016 14.282907 -0.826595 6.952508 -2e-06 -12.690616 -3e-06 16.29159 -17.548786 2.299851 1.665668 -1.955924 -2.878301 4.727805 -4.170591 4.993927 11.02054 2e-06 -0.0 12.109066 -3.73572 -2.866786 -0.0 -0.0 -1e-06 1.291987 -1.928551 -1.498093 14.800146 0.567469 3.865611 14.242588 -1.341737 -6.660666 19.63199 0.143927 -0.648246 49.715919 -0.539569 -6.63529 0.353029 -1.511152 -0.031941 20.222813 3.684314 2.316629 18.787294 8e-06 -4e-06 10.751639 -0.479868 1.397905 -1e-06 0.0 1e-06 3.27381 0.305947 -0.58011 21.486839 11.830388 2.266133 8.162937 3e-06 -3e-06 18.399101 -3.798985 -4.940581 4e-06 0.0 -1e-06 4.146468 11.525299 0.594383 0.065517 -0.15009 8.829747 -6.69155 -4.607368 -5.801937 1.648247 -1.810572 -2.575777 -0.0 -0.0 2e-06 -11.648942 -14.026747 2.051207 -0.078906 -0.100705 11.305253 11.267078 -6.869304 -8.233584 -1.421292 1.021531 -1.523518 0.0 0.0 -1e-06 
0.0 0.0 0.0 0.0 -0.0 0.0 -2.832673 99.315643 2.431067 2.310034 0.658387 -2.124395 -0.540667 -0.453477 -4.199787 -0.520677 -1.042614 -6.635754 -2.645553 -3.251873 17.656588 -0.522958 2.693066 -1.339781 -0.937802 -0.639725 -3.573641 -0.925491 -1.632857 -3.592573 7.7e-05 -2.2e-05 6e-06 0.033214 0.070729 0.007417 0.77878 -3.631902 -10.510767 -0.717331 3.779063 -10.464994 -25.559195 -12.200059 22.671394 -40.523331 -11.771415 19.978733 1.17937 -36.897888 -0.401995 -13.26451 3.903217 -1.689256 -5.882104 9.861283 0.702588 -10.93687 -0.360578 7.156201 1e-06 8.774824 -3e-06 -16.542086 18.072098 6.128311 -1.844032 2.498505 -2.507277 -10.163597 4.678942 4.621105 -20.976021 -6e-06 2e-06 -21.22628 2.451695 -3.593999 1e-06 -7e-06 -1e-06 -1.362682 2.240797 -0.746323 -21.334913 0.584906 3.008321 -13.82121 -4e-06 2e-06 -23.887167 -0.249083 -0.839482 -60.119675 2.645888 -0.816669 -0.294024 1.679686 0.833255 -14.218206 0.093212 1.300579 -34.212044 -0.28757 0.967172 -20.033209 0.964532 1.212845 2e-06 0.0 -1e-06 -3.440388 0.788232 0.501656 -15.928185 -3.167312 2.999707 -6.338825 -2e-06 2e-06 -18.123444 3.648179 -4.905669 -2e-06 -1e-06 -2e-06 16.648428 15.481275 22.560329 49.134533 0.244762 20.171165 -0.263402 55.011269 0.00649 4.298846 -10.5004 -8.765205 2.243542 -5.255038 -3.180157 14.282896 -0.826593 6.952507 -4e-06 -12.690607 1e-06 16.205353 -17.418289 2.384763 1.665666 -1.955922 -2.878298 4.7278 -4.170588 4.993925 11.020531 4e-06 0.0 12.109057 -3.735715 -2.866784 0.0 0.0 0.0 1.291986 -1.92855 -1.498091 14.800136 0.567471 3.86561 14.242576 -1.341734 -6.660657 19.631975 0.143929 -0.648243 49.55072 -0.563051 -6.615019 0.353029 -1.511151 -0.031941 20.222801 3.684313 2.316631 18.787279 8e-06 1e-06 10.751632 -0.479869 1.397908 -1e-06 0.0 1e-06 3.273808 0.305947 -0.580112 21.486828 11.83038 2.266136 8.16293 4e-06 1e-06 18.399092 -3.798985 -4.940574 4e-06 0.0 -1e-06 3.778856 11.168386 -0.261844 0.057885 -0.144899 9.58945 -6.263769 -4.367883 -6.032012 1.649166 -1.786476 -2.729626 -0.0 -0.0 2e-06 -11.839471 -14.156282 1.274433 -0.065421 -0.087861 12.193642 11.497572 -6.964611 -8.222027 -1.418136 1.010158 -1.687649 0.0 0.0 -1e-06 
